<?xml version="1.0" encoding="UTF-8"?><svg xmlns="http://www.w3.org/2000/svg" xmlns:xlink="http://www.w3.org/1999/xlink" viewBox="0 0 256 256"><defs><style>.cls-1{fill:none;}.cls-2{clip-path:url(#clippath);}</style><clipPath id="clippath"><polygon class="cls-1" points="429.5 -38.84 -1115.5 -38.84 -1117.5 -541.5 429.5 -539.16 429.5 -38.84"/></clipPath></defs><g id="Icons"><g><g><path d="M8.94,109.89c2.95,0,5.34-2.39,5.34-5.33V35.13h26.69c2.95,0,5.34-2.39,5.34-5.33V11.16h56.04V29.8c0,2.94,2.39,5.33,5.34,5.33h41.37c2.95,0,5.34-2.39,5.34-5.33V11.16h56.04V29.8c0,2.94,2.39,5.33,5.34,5.33h25.69V104.56c0,2.94,2.39,5.33,5.34,5.33s5.34-2.39,5.34-5.33V29.8c0-2.94-2.39-5.33-5.34-5.33h-25.69V5.83c0-2.94-2.39-5.33-5.34-5.33h-66.72c-2.95,0-5.34,2.39-5.34,5.33V24.48h-30.69V5.83c0-2.94-2.39-5.33-5.34-5.33H40.96c-2.95,0-5.34,2.39-5.34,5.33V24.48H8.94c-2.95,0-5.34,2.39-5.34,5.33V104.56c0,2.94,2.39,5.33,5.34,5.33Z"/><path d="M235.37,221.53c-7.66,0-14.16,5.04-16.35,11.98h-34.1c14.3-5.92,26.6-14.46,36.81-25.58,17.98-19.59,25.26-42.65,28.2-58.54,1.53-8.24,1.68-13.62,1.69-13.85,.07-2.76-2.11-5.05-4.87-5.12-2.78-.07-5.06,2.1-5.14,4.86,0,.05-.15,4.89-1.52,12.29-2.71,14.61-9.34,35.79-25.74,53.61-22.37,24.29-58.75,30.26-58.75,30.26-3.85,.65-7.81,1.15-11.88,1.5v-4.99c0-3.5-2.85-6.34-6.35-6.34h-18.3c-3.5,0-6.35,2.85-6.35,6.34v4.88c-4.07-.36-29.12,1.85-60.05-20.76-10.12-7.45-18.48-16.8-24.92-27.91-13.94-24.04-14.15-48.35-14.15-48.73,0-2.76-2.23-5-4.99-5h-.01c-2.76,0-5,2.23-5,4.99,0,1.09,.12,26.96,15.27,53.36,8.95,15.59,21.29,28.1,36.68,37.17,4.88,2.88,10.07,5.4,15.56,7.58H37.4c-.1,0-.19,0-.28,.01-2.11-7.07-8.67-12.24-16.42-12.24-9.45,0-17.13,7.67-17.13,17.1s7.69,17.1,17.13,17.1c7.67,0,14.18-5.06,16.36-12.01,.12,0,.23,.02,.35,.02H112.7v2.7c0,3.5,2.85,6.34,6.35,6.34h18.3c3.5,0,6.35-2.85,6.35-6.34v-2.7h75.24c2.1,7.07,8.67,12.24,16.42,12.24,9.45,0,17.13-7.67,17.13-17.1s-7.69-17.1-17.13-17.1Z"/></g><g><path d="M97.76,67.32v67.83h-24.61V67.32h24.61m2.57-6.13h-29.76c-1.97,0-3.57,1.6-3.57,3.56v72.97c0,1.97,1.6,3.56,3.57,3.56h29.76c1.97,0,3.57-1.6,3.57-3.56V64.75c0-1.97-1.6-3.56-3.57-3.56h0Z"/><path d="M140.36,67.32v24.14h-23.76v-24.14h23.76m2.9-6.13h-29.56c-1.79,0-3.24,1.45-3.24,3.24v29.94c0,1.79,1.45,3.24,3.24,3.24h29.56c1.79,0,3.24-1.45,3.24-3.24v-29.94c0-1.79-1.45-3.24-3.24-3.24h0Z"/><path d="M183.41,67.32v103.39h-23.9V67.32h23.9m2.39-6.13h-28.67c-2.08,0-3.76,1.68-3.76,3.75v108.15c0,2.07,1.68,3.75,3.76,3.75h28.67c2.08,0,3.76-1.68,3.76-3.75V64.94c0-2.07-1.68-3.75-3.76-3.75h0Z"/><path d="M140.36,110.58v24.14h-23.76v-24.14h23.76m2.78-6.13h-29.33c-1.86,0-3.36,1.5-3.36,3.35v29.7c0,1.85,1.5,3.35,3.36,3.35h29.33c1.86,0,3.36-1.5,3.36-3.35v-29.7c0-1.85-1.5-3.35-3.36-3.35h0Z"/><path d="M140.52,153.54v17.16H73.14v-17.16h67.37m2.9-6.13H70.24c-1.79,0-3.25,1.45-3.25,3.24v22.95c0,1.79,1.45,3.24,3.25,3.24h73.17c1.79,0,3.25-1.45,3.25-3.24v-22.95c0-1.79-1.45-3.24-3.25-3.24h0Z"/></g></g></g><g id="styles_library"><g class="cls-2"><image width="5070" height="2492" transform="translate(-1240.23 -650.27) rotate(-7.33) scale(.34)" xlink:href="../../../../Screenshots/Screen Shot 2022-10-28 at 2.55.50 AM.png"/></g></g></svg>